<?xml version="1.0" standalone="no"?><!DOCTYPE svg PUBLIC "-//W3C//DTD SVG 1.1//EN" "http://www.w3.org/Graphics/SVG/1.1/DTD/svg11.dtd"><svg t="1543971787223" class="icon" style="" viewBox="0 0 1024 1024" version="1.1" xmlns="http://www.w3.org/2000/svg" p-id="5213" xmlns:xlink="http://www.w3.org/1999/xlink" width="200" height="200"><defs><style type="text/css"></style></defs><path d="M139.52 806.4c-37.12-12.8-75.52 7.68-89.6 43.52-12.8 37.12 7.68 75.52 43.52 88.32 37.12 12.8 75.52-7.68 89.6-43.52 11.52-38.4-8.96-76.8-43.52-88.32zM756.48 806.4c-37.12-12.8-75.52 7.68-89.6 43.52-12.8 37.12 7.68 75.52 43.52 88.32 37.12 12.8 75.52-7.68 89.6-43.52 12.8-38.4-6.4-76.8-43.52-88.32z" p-id="5214"></path><path d="M933.12 642.56c0-7.68-6.4-15.36-15.36-15.36H578.56c-7.68 0-15.36 6.4-15.36 15.36v42.24c-2.56 28.16 1.28 57.6-20.48 98.56H360.96c5.12-5.12 7.68-8.96 8.96-15.36l53.76-135.68 144.64-21.76c29.44-2.56 58.88-16.64 67.84-65.28 8.96-83.2 5.12-133.12-21.76-208.64-17.92-55.04-66.56-72.96-98.56-65.28 5.12-5.12 8.96-10.24 14.08-16.64 6.4-2.56 12.8-7.68 16.64-12.8 10.24-10.24 16.64-24.32 20.48-46.08 1.28-6.4 1.28-10.24 1.28-16.64 0-5.12 0-7.68-1.28-12.8-6.4-49.92-49.92-84.48-98.56-84.48-5.12 0-8.96 0-12.8 1.28-32 5.12-60.16 24.32-75.52 51.2-5.12 8.96-8.96 20.48-10.24 32 5.12 0 8.96 1.28 15.36 1.28-10.24 16.64-16.64 46.08-14.08 65.28 10.24 44.8 57.6 74.24 103.68 62.72 2.56 0 6.4-1.28 10.24-2.56-12.8 16.64-16.64 43.52-8.96 74.24l-7.68 7.68c-28.16 25.6-67.84 52.48-126.72 52.48h-10.24c-16.64-1.28-30.72 12.8-32 28.16v7.68c-8.96 14.08-46.08 111.36-46.08 111.36-29.44 12.8-72.96 39.68-96 99.84-2.56 6.4-5.12 12.8-7.68 17.92-35.84 0-88.32 8.96-125.44 55.04C2.56 775.68 8.96 793.6 23.04 794.88c8.96-7.68 12.8-12.8 16.64-16.64s7.68-7.68 12.8-10.24c32-23.04 74.24-30.72 113.92-16.64 49.92 16.64 80.64 60.16 84.48 107.52h366.08c1.28-8.96 2.56-20.48 6.4-29.44 21.76-65.28 93.44-99.84 160-78.08 49.92 16.64 80.64 60.16 84.48 107.52h84.48c0-47.36-8.96-135.68-23.04-175.36v-42.24h3.84zM345.6 573.44l-62.72 160c-1.28 3.84-1.28 6.4-3.84 8.96-5.12-15.36-7.68-25.6-7.68-25.6 14.08-38.4 52.48-194.56 60.16-229.12h12.8c65.28 0 113.92-24.32 149.76-52.48 5.12 28.16 7.68 66.56 7.68 92.16l-120.32 17.92c-14.08 0-28.16 12.8-35.84 28.16z" p-id="5215"></path><path d="M986.88 332.8H698.88c-14.08 0-24.32 8.96-24.32 20.48v234.24c0 10.24 10.24 20.48 24.32 20.48h289.28c14.08 0 24.32-8.96 24.32-20.48V353.28c-1.28-11.52-11.52-20.48-25.6-20.48z m-119.04 212.48l-69.12-89.6h35.84l-8.96-67.84 69.12 89.6h-35.84l8.96 67.84zM120.32 512l104.96-25.6c6.4-1.28 12.8-7.68 12.8-15.36V460.8c0-6.4-5.12-14.08-12.8-15.36l-104.96-25.6c-14.08-2.56-23.04 5.12-23.04 17.92v55.04c0 12.8 10.24 21.76 23.04 19.2z" p-id="5216"></path></svg>