<?xml version="1.0" standalone="no"?><!DOCTYPE svg PUBLIC "-//W3C//DTD SVG 1.1//EN" "http://www.w3.org/Graphics/SVG/1.1/DTD/svg11.dtd"><svg t="1543973018679" class="icon" style="" viewBox="0 0 1024 1024" version="1.1" xmlns="http://www.w3.org/2000/svg" p-id="6868" xmlns:xlink="http://www.w3.org/1999/xlink" width="200" height="200"><defs><style type="text/css"></style></defs><path d="M632 184l-352 0c-17.664 0-32 14.336-32 32l0 608c0 17.664 14.336 32 32 32l448 0c17.664 0 32-14.336 32-32l0-512L632 184zM632 224l88 88-88 0L632 224zM728 824l-448 0 0-608 320 0 0 96c0 17.664 14.336 32 32 32l96 0L728 824zM599.184 454.064l-117.808 117.808-56.576-56.56c-6.24-6.256-16.368-6.256-22.624 0s-6.256 16.368 0 22.624l67.888 67.888c6.256 6.256 16.368 6.256 22.624 0l129.136-129.136c6.256-6.256 6.256-16.368 0-22.624S605.44 447.808 599.184 454.064z" p-id="6869"></path></svg>