<?xml version="1.0" standalone="no"?><!DOCTYPE svg PUBLIC "-//W3C//DTD SVG 1.1//EN" "http://www.w3.org/Graphics/SVG/1.1/DTD/svg11.dtd"><svg t="1544080099187" class="icon" style="" viewBox="0 0 1024 1024" version="1.1" xmlns="http://www.w3.org/2000/svg" p-id="2397" xmlns:xlink="http://www.w3.org/1999/xlink" width="200" height="200"><defs><style type="text/css"></style></defs><path d="M562.918 192.237c-0.727 0-1.449 0-2.186 0-2.186-9.473-4.375-18.952-6.561-28.421-0.723 0-1.445 0-2.182 0-0.727-2.918-1.449-5.826-2.186-8.747-0.727 0-1.449 0-2.186 0-0.723-2.918-1.449-5.826-2.186-8.742-1.445-0.731-2.908-1.454-4.375-2.186-0.723-2.918-1.445-5.826-2.182-8.742-2.186-1.454-4.375-2.918-6.561-4.375 0-1.454 0-2.918 0-4.371-4.371-3.644-8.742-7.288-13.117-10.932 0-1.454 0-2.918 0-4.371-2.186-0.731-4.366-1.454-6.548-2.186-3.649-4.371-7.292-8.747-10.932-13.118-1.463 0-2.918 0-4.371 0-0.731-1.454-1.463-2.918-2.186-4.371-1.458 0-2.918 0-4.375 0-0.731-1.454-1.454-2.918-2.186-4.371-2.186-0.727-4.375-1.454-6.557-2.186 0-0.731 0-1.454 0-2.186-6.557-2.186-13.117-4.371-19.674-6.557 0-0.731 0-1.454 0-2.186-1.454 0-2.918 0-4.371 0 0-0.727 0-1.454 0-2.186-2.186 0-4.375 0-6.557 0 0-0.731 0-1.454 0-2.186-2.917 0-5.829 0-8.747 0 0-0.723 0-1.454 0-2.186-8.666-2.934-52.942-7.997-65.594-4.375 0 0.731 0 1.463 0 2.186-4.371 0-8.747 0-13.117 0 0 0.731 0 1.454 0 2.186-2.908 0-5.826 0-8.742 0 0 0.731 0 1.463 0 2.186-2.913 0-5.829 0-8.747 0 0 0.731 0 1.454 0 2.186-1.454 0-2.917 0-4.371 0 0 0.731 0 1.463 0 2.186-2.186 0-4.375 0-6.557 0 0 0.731 0 1.454 0 2.186-4.375 1.463-8.747 2.918-13.117 4.375 0 0.731 0 1.463 0 2.186-1.454 0-2.917 0-4.371 0 0 0.731 0 1.454 0 2.186-2.913 0.731-5.829 1.463-8.747 2.186-0.723 1.454-1.454 2.918-2.186 4.371-1.454 0-2.908 0-4.371 0-1.454 2.186-2.908 4.371-4.371 6.557-1.454 0-2.908 0-4.371 0-5.098 5.826-10.201 11.664-15.304 17.489-3.644 2.918-7.283 5.826-10.932 8.742 0 1.458 0 2.918 0 4.375-2.186 1.454-4.371 2.918-6.557 4.371 0 1.454 0 2.918 0 4.371-1.454 0.731-2.908 1.454-4.371 2.186-0.727 2.918-1.454 5.826-2.186 8.747-1.454 0.731-2.908 1.454-4.371 2.186 0 2.186 0 4.371 0 6.557-0.727 0-1.454 0-2.186 0-0.723 2.918-1.454 5.826-2.186 8.747-0.723 0-1.454 0-2.186 0-0.727 3.639-1.454 7.288-2.186 10.932-0.723 0-1.454 0-2.186 0 0 2.918 0 5.826 0 8.742-7.257 21.223-9.766 57.358-2.186 80.888 0 2.908 0 5.826 0 8.747 0.731 0 1.463 0 2.186 0 0.731 4.371 1.463 8.742 2.186 13.118 0.731 0 1.463 0 2.186 0 0 1.454 0 2.908 0 4.371 0.731 0 1.463 0 2.186 0 2.186 6.557 4.375 13.118 6.557 19.674 1.463 0.723 2.918 1.454 4.375 2.186 0.731 2.908 1.463 5.829 2.186 8.747 2.186 1.454 4.375 2.908 6.557 4.371 0 1.454 0 2.908 0 4.371 1.463 0.727 2.918 1.454 4.375 2.186 0 1.454 0 2.908 0 4.371 0.731 0 1.463 0 2.186 0 0 1.454 0 2.908 0 4.375 0.731 0 1.463 0 2.186 0 0 1.454 0 2.908 0 4.371 0.731 0 1.463 0 2.186 0 0 1.454 0 2.908 0 4.371 0.731 0 1.463 0 2.186 0 0 1.454 0 2.908 0 4.371 0.731 0 1.463 0 2.186 0 0 1.454 0 2.908 0 4.375 0.731 0 1.463 0 2.186 0 0 1.454 0 2.908 0 4.371 0.731 0 1.463 0 2.186 0 0 1.454 0 2.908 0 4.371 0.731 0 1.463 0 2.186 0 0 1.454 0 2.908 0 4.375 0.731 0 1.463 0 2.186 0 0 1.454 0 2.908 0 4.371 0.731 0 1.463 0 2.186 0 0 1.454 0 2.908 0 4.371 0.731 0 1.463 0 2.186 0 0.731 2.908 1.463 5.826 2.186 8.747 0.731 0 1.463 0 2.186 0 0.731 2.908 1.463 5.826 2.186 8.742 0.731 0 1.454 0 2.186 0 1.463 4.366 2.918 8.747 4.371 13.109 0.731 0 1.463 0 2.186 0 0 1.463 0 2.918 0 4.371 0.731 0 1.454 0 2.186 0 0 1.463 0 2.917 0 4.371 0.731 0 1.463 0 2.186 0 0 1.463 0 2.917 0 4.375 0.731 0 1.454 0 2.186 0 0 1.463 0 2.918 0 4.371 0.731 0 1.463 0 2.186 0 0 1.463 0 2.918 0 4.371 0.731 0 1.454 0 2.186 0 0 1.463 0 2.917 0 4.375 0.731 0 1.463 0 2.186 0 0 1.463 0 2.918 0 4.371 0.731 0 1.454 0 2.186 0 0 1.463 0 2.918 0 4.371 0.731 0 1.463 0 2.186 0 0 1.463 0 2.918 0 4.371 0.731 0 1.454 0 2.186 0 0 1.463 0 2.918 0 4.375 1.463 0.731 2.918 1.463 4.371 2.186 0 1.463 0 2.918 0 4.375 0.731 0 1.463 0 2.186 0 0 1.463 0 2.917 0 4.371 0.731 0 1.454 0 2.186 0 0 1.463 0 2.918 0 4.371 0.731 0 1.463 0 2.186 0 0 1.463 0 2.918 0 4.375 0.731 0 1.454 0 2.186 0 0 1.463 0 2.918 0 4.371 0.731 0 1.463 0 2.186 0 0 1.463 0 2.918 0 4.371 0.731 0 1.454 0 2.186 0 0 1.463 0 2.918 0 4.371 0.731 0 1.463 0 2.186 0 0 1.463 0 2.918 0 4.375 0.731 0 1.454 0 2.186 0 0 1.463 0 2.918 0 4.371 0.731 0 1.454 0 2.186 0 0 1.463 0 2.918 0 4.371 0.731 0 1.454 0 2.186 0 0 1.463 0 2.918 0 4.371 0.731 0 1.454 0 2.186 0 0 1.458 0 2.917 0 4.375 0.731 0 1.454 0 2.186 0 0.731 2.917 1.454 5.834 2.186 8.752 0.731 0 1.458 0 2.186 0 0.731 2.908 1.454 5.821 2.186 8.742 0.731 0 1.454 0 2.186 0 1.454 4.375 2.917 8.742 4.375 13.117 0.731 0 1.454 0 2.186 0 1.454 4.375 2.917 8.742 4.375 13.118 0.731 0 1.454 0 2.186 0 0 1.445 0 2.908 0 4.371 0.731 0 1.454 0 2.186 0 0 1.449 0 2.913 0 4.375 0.731 0 1.454 0 2.186 0 2.369 4.425 7.98 22.161 10.932 24.046 1.454 0 2.917 0 4.371 0 2.118-9.249 7.18-14.842 10.932-21.861 0-1.463 0-2.921 0-4.375 0.731 0 1.454 0 2.186 0 1.454-4.371 2.918-8.742 4.371-13.117 0.731 0 1.454 0 2.186 0 0-1.458 0-2.921 0-4.371 0.731 0 1.454 0 2.186 0 0-1.463 0-2.921 0-4.375 0.731 0 1.454 0 2.186 0 0-1.458 0-2.921 0-4.375 0.731 0 1.454 0 2.186 0 0-1.458 0-2.921 0-4.371 0.731 0 1.454 0 2.186 0 0-1.463 0-2.921 0-4.375 0.731 0 1.454 0 2.186 0 0.731-2.921 1.454-5.834 2.186-8.752 0.731 0 1.454 0 2.186 0 0.731-2.908 1.454-5.826 2.186-8.742 0.731 0 1.454 0 2.186 0 0.731-2.908 1.454-5.826 2.186-8.742 0.731 0 1.454 0 2.186 0 0.731-2.913 1.454-5.829 2.186-8.747 0.731 0 1.454 0 2.186 0 0-1.454 0-2.908 0-4.371 0.731 0 1.454 0 2.186 0 0-1.454 0-2.908 0-4.375 0.723 0 1.454 0 2.186 0 0-1.454 0-2.908 0-4.371 0.731 0 1.454 0 2.186 0 0-1.454 0-2.908 0-4.371 0.723 0 1.454 0 2.186 0 0-1.454 0-2.908 0-4.371 0.731 0 1.454 0 2.186 0 0-1.454 0-2.913 0-4.375 0.727 0 1.454 0 2.186 0 0-1.454 0-2.908 0-4.371 1.454-0.723 2.908-1.454 4.371-2.186 0-1.454 0-2.908 0-4.371 0.731 0 1.454 0 2.186 0 0-1.454 0-2.908 0-4.371 0.723 0 1.454 0 2.186 0 0-1.454 0-2.908 0-4.371 0.731 0 1.458 0 2.186 0 0-1.458 0-2.913 0-4.375 0.727 0 1.454 0 2.186 0 0-1.454 0-2.908 0-4.371 0.731 0 1.454 0 2.186 0 0-1.454 0-2.908 0-4.371 0.727 0 1.454 0 2.186 0 0-1.454 0-2.908 0-4.375 0.731 0 1.454 0 2.186 0 0-1.454 0-2.908 0-4.371 0.723 0 1.454 0 2.186 0 0-1.454 0-2.908 0-4.371 0.731 0 1.454 0 2.186 0 0.723-2.908 1.454-5.826 2.186-8.747 0.731 0 1.454 0 2.186 0 0.727-2.908 1.454-5.826 2.186-8.742 0.731 0 1.454 0 2.186 0 0.723-2.908 1.454-5.829 2.186-8.747 0.727 0 1.454 0 2.186 0 1.454-4.371 2.918-8.742 4.371-13.118 0.727 0 1.454 0 2.186 0 0-1.454 0-2.908 0-4.371 0.723 0 1.454 0 2.186 0 0-1.454 0-2.908 0-4.371 0.727 0 1.454 0 2.186 0 0-1.454 0-2.908 0-4.375 0.723 0 1.454 0 2.186 0 0-1.454 0-2.908 0-4.371 0.723 0 1.454 0 2.186 0 0-1.454 0-2.908 0-4.366 0.731 0 1.454 0 2.176 0 0-1.463 0-2.917 0-4.371 0.741 0 1.463 0 2.186 0 0-1.463 0-2.918 0-4.375 0.741 0 1.463 0 2.186 0 0-1.463 0-2.917 0-4.371 0.736 0 1.463 0 2.186 0 0-1.463 0-2.917 0-4.371 0.736 0 1.458 0 2.186 0 0-1.463 0-2.918 0-4.371 2.921-2.186 5.834-4.375 8.742-6.557 0-1.463 0-2.917 0-4.375 1.463-0.731 2.921-1.463 4.375-2.186 0-1.463 0-2.917 0-4.375 1.458-0.731 2.921-1.463 4.371-2.186 0.741-2.918 1.463-5.834 2.186-8.747 0.736 0 1.463 0 2.186 0 0-1.463 0-2.917 0-4.371 0.736 0 1.458 0 2.186 0 1.458-4.371 2.921-8.747 4.371-13.117 0.741 0 1.463 0 2.186 0 0-2.186 0-4.371 0-6.557 0.741 0 1.463 0 2.186 0 0-2.186 0-4.371 0-6.557 0.736 0 1.463 0 2.186 0 0-2.917 0-5.834 0-8.742 0.736 0 1.458 0 2.186 0 0-4.375 0-8.747 0-13.118 0.736 0 1.458 0 2.182 0 2.796-9.348 0.081-56.448-2.131-63.39zM499.524 244.703c-0.731 0-1.463 0-2.186 0 0 3.639 0 7.283 0 10.932-0.731 0-1.463 0-2.186 0 0 2.186 0 4.371 0 6.557-0.731 0-1.458 0-2.186 0 0 2.186 0 4.371 0 6.557-0.731 0-1.463 0-2.186 0 0 1.454 0 2.908 0 4.371-0.731 0-1.454 0-2.186 0-0.731 2.908-1.463 5.826-2.186 8.747-1.454 0.723-2.918 1.454-4.371 2.186 0 1.454 0 2.908 0 4.375-2.918 2.186-5.829 4.371-8.747 6.557 0 1.454 0 2.913 0 4.375-0.731 0-1.454 0-2.186 0-0.731 1.454-1.463 2.908-2.186 4.371-1.454 0-2.918 0-4.371 0-2.186 2.908-4.375 5.826-6.557 8.747-1.454 0-2.917 0-4.375 0-0.731 1.454-1.463 2.908-2.186 4.371-1.454 0-2.917 0-4.375 0 0 0.723 0 1.454 0 2.186-2.917 0.727-5.826 1.458-8.742 2.186 0 0.727 0 1.454 0 2.186-7.292 1.454-14.573 2.908-21.864 4.371 0 0.727 0 1.454 0 2.186-17.584 5.323-57.305-5.781-65.585-10.932-0.731-1.463-1.454-2.918-2.186-4.371-2.917-0.731-5.829-1.463-8.747-2.186 0-0.731 0-1.463 0-2.186-4.51-3.667-6.646-6.907-13.117-8.747-1.836-6.48-5.089-8.594-8.742-13.113-0.727 0-1.454 0-2.186 0-0.731-2.918-1.454-5.834-2.186-8.747-0.723 0-1.454 0-2.186 0 0-1.463 0-2.917 0-4.371-1.454-0.731-2.908-1.463-4.375-2.186 0-1.463 0-2.918 0-4.371-0.731 0-1.454 0-2.186 0 0-2.918 0-5.834 0-8.747-2.665-7.388-10.188-28.61-6.557-41.534 0.731 0 1.463 0 2.186 0 0-4.371 0-8.747 0-13.118 10.272-31.801 32.039-57.081 61.208-69.955 2.186 0 4.375 0 6.557 0 0-0.731 0-1.454 0-2.186 2.186 0 4.375 0 6.557 0 0-0.731 0-1.454 0-2.186 5.103 0 10.201 0 15.304 0 0-0.731 0-1.454 0-2.186 7.091-2.029 34.543 2.509 39.349 4.371 0 0.731 0 1.454 0 2.186 2.186 0 4.375 0 6.557 0 0 0.731 0 1.454 0 2.186 2.908 0.731 5.829 1.454 8.747 2.186 0 0.731 0 1.454 0 2.186 2.908 0.731 5.826 1.454 8.742 2.186 0.731 1.454 1.454 2.918 2.186 4.375 1.454 0 2.918 0 4.371 0 3.644 4.371 7.292 8.742 10.932 13.114 2.913 2.186 5.829 4.375 8.747 6.557 0 1.454 0 2.918 0 4.375 1.454 0.731 2.908 1.454 4.371 2.186 0.731 2.918 1.454 5.829 2.186 8.747 1.454 0.731 2.918 1.454 4.371 2.186 0.727 3.644 1.454 7.292 2.186 10.932 0.731 0 1.454 0 2.186 0 0 2.908 0 5.826 0 8.742 2.657 7.809 8.217 25.962 4.385 39.349z" p-id="2398"></path><path d="M947.675 959.559c-1.764-4.757-0.233-12.818-2.186-19.679-0.723 0-1.458 0-2.186 0 0-6.557 0-13.118 0-19.674-6.103-21.479-4.82-50.735-10.932-72.142 0-6.561 0-13.118 0-19.679-0.723 0-1.458 0-2.186 0 0-5.821 0-11.655 0-17.484-7.912-27.766-5.233-64.108-13.114-91.821-0.727-12.378-1.463-24.773-2.186-37.163-0.727 0-1.463 0-2.186 0 0-5.821 0-11.655 0-17.484-0.723 0-1.463 0-2.186 0 0-6.561 0-13.118 0-19.679-0.723 0-1.463 0-2.186 0 0-5.821 0-11.655 0-17.484 8.728-31.415 6.454-71.527 15.304-102.739 0.723-11.66 1.463-23.323 2.186-34.982 0.723 0 1.458 0 2.186 0 0-5.826 0-11.66 0-17.489 0.723 0 1.458 0 2.182 0 0-5.826 0-11.655 0-17.489 0.727 0 1.463 0 2.186 0 0-5.826 0-11.655 0-17.489 0.727 0 1.463 0 2.186 0 0-5.826 0-11.655 0-17.489 0.723 0 1.463 0 2.186 0 0-5.098 0-10.201 0-15.299 0.723 0 1.463 0 2.186 0 0-5.834 0-11.66 0-17.489 0.723 0 1.458 0 2.186 0 0-5.834 0-11.66 0-17.489 2.414-8.455 4.317-19.594 4.371-30.607-7.279-2.186-14.576-4.371-21.86-6.557 0-0.731 0-1.463 0-2.186-4.375-0.731-8.742-1.463-13.118-2.186 0-0.731 0-1.463 0-2.186-1.463 0-2.908 0-4.375 0 0-0.731 0-1.463 0-2.186-4.371-0.731-8.742-1.463-13.114-2.186 0-0.731 0-1.463 0-2.186-3.649-0.731-7.283-1.463-10.937-2.186 0-0.731 0-1.463 0-2.186-1.458 0-2.908 0-4.371 0 0-0.731 0-1.463 0-2.186-4.375-0.731-8.747-1.463-13.118-2.186 0-0.731 0-1.463 0-2.186-1.463 0-2.908 0-4.375 0 0-0.731 0-1.463 0-2.186-2.186 0-4.371 0-6.557 0 0-0.731 0-1.463 0-2.186-2.186 0-4.375 0-6.561 0 0-0.731 0-1.463 0-2.186-1.458 0-2.908 0-4.371 0 0-0.731 0-1.463 0-2.186-4.375-0.731-8.747-1.463-13.118-2.186 0-0.731 0-1.463 0-2.186-1.463 0-2.908 0-4.375 0 0-0.731 0-1.463 0-2.186-2.186 0-4.375 0-6.557 0 0-0.731 0-1.463 0-2.186-1.463 0-2.908 0-4.375 0 0-0.731 0-1.463 0-2.186-4.375-0.731-8.742-1.463-13.118-2.186 0-0.731 0-1.463 0-2.186-1.463 0-2.908 0-4.375 0 0-0.731 0-1.463 0-2.186-4.371-0.731-8.742-1.463-13.118-2.186 0-0.731 0-1.463 0-2.186-1.458 0-2.908 0-4.371 0 0-0.731 0-1.463 0-2.186-4.375-0.731-8.742-1.463-13.118-2.186 0-0.731 0-1.463 0-2.186-3.636-0.731-7.283-1.463-10.932-2.186 0-0.731 0-1.463 0-2.186-1.463 0-2.908 0-4.375 0 0-0.731 0-1.463 0-2.186-4.371-0.731-8.742-1.463-13.118-2.186 0-0.731 0-1.463 0-2.186-1.445 0-2.908 0-4.371 0 0-0.731 0-1.463 0-2.186-4.375-0.731-8.747-1.463-13.118-2.186 0-0.731 0-1.463 0-2.186-1.449 0-2.908 0-4.375 0 0-0.731 0-1.463 0-2.186-4.375-0.731-8.742-1.463-13.118-2.186 0-0.731 0-1.463 0-2.186-1.445 0-2.908 0-4.371 0 0-0.731 0-1.463 0-2.186-2.186 0-4.375 0-6.561 0 0-0.731 0-1.463 0-2.186-3.635-0.731-7.283-1.454-10.932-2.186 0-0.731 0-1.463 0-2.186-15.003 1.14-20.235 8.428-30.607 13.118-2.182 0-4.371 0-6.557 0 0 0.723 0 1.454 0 2.186-1.445 0-2.908 0-4.375 0 0 0.727 0 1.454 0 2.186-1.445 0-2.908 0-4.371 0 0 0.723 0 1.454 0 2.186-1.449 0-2.908 0-4.375 0 0 0.723 0 1.454 0 2.186-1.445 0-2.908 0-4.375 0 0 0.727 0 1.454 0 2.186-1.445 0-2.908 0-4.371 0 0 0.723 0 1.454 0 2.186-1.449 0-2.908 0-4.375 0 0 0.727 0 1.458 0 2.186-1.445 0-2.908 0-4.371 0 0 0.727 0 1.454 0 2.186-8.006 2.908-16.026 5.826-24.051 8.742-0.449 10.708-5.138 29.871-10.932 34.978 0 2.186 0 4.371 0 6.557 14.581-6.557 29.157-13.113 43.725-19.674 0-0.731 0-1.463 0-2.186 6.517-3.482 12.732-3.478 17.484-8.742 0.741 0 1.463 0 2.186 0-1.445 21.856-2.908 43.72-4.371 65.585-0.727 0-1.449 0-2.186 0-1.449 24.040-2.908 48.096-4.375 72.137-0.723 0-1.445 0-2.186 0 0 7.288 0 14.581 0 21.861-0.723 0-1.445 0-2.186 0 0 8.020 0 16.035 0 24.046-0.723 0-1.445 0-2.182 0 0 8.020 0 16.035 0 24.046-0.727 0-1.449 0-2.186 0 0 8.016 0 16.035 0 24.054-0.723 0-1.449 0-2.186 0 0 8.006 0 16.026 0 24.046-0.723 0-1.445 0-2.186 0 0 5.098 0 10.192 0 15.299 0 2.186 0 4.375 0 6.561-0.723 0-1.445 0-2.186 0 0.741 7.283 1.463 14.562 2.186 21.861-53.194 7.283-106.392 14.567-159.581 21.847-10.071 2.94-25.28 6.193-37.163 6.575-3.060 13.185-12.623 19.32-15.304 32.779-3.639 0-7.288 0-10.932 0-2.783-11.875-10.205-21.052-15.304-30.603 0-1.449 0-2.913 0-4.375-0.731 0-1.454 0-2.186 0 0-1.449 0-2.908 0-4.375-0.731 0-1.454 0-2.186 0 0-1.445 0-2.908 0-4.371-0.731 0-1.454 0-2.186 0 0-1.449 0-2.908 0-4.375-0.731 0-1.454 0-2.186 0 0-1.449 0-2.908 0-4.375-2.998-5.587-7.257-9.797-8.747-17.475-1.454 0-2.917 0-4.371 0 2.186 14.562 4.371 29.144 6.557 43.706 0 0.741 0 1.463 0 2.199-22.254-0.409-43.429-3.428-61.213-8.742-4.371 0-8.742 0-13.117 0 0-0.741 0-1.463 0-2.199-14.573-1.449-29.152-2.908-43.725-4.375-11.852-3.46-29.692-5.246-41.534-8.742-5.093 0-10.196 0-15.304 0-12.664-3.703-33.785-7.652-48.087-8.728 3.738-10.631 0.696-22.807-2.195-32.797 0-5.834 0-11.668 0-17.484-0.723 0-1.454 0-2.176 0 0-5.834 0-11.673 0-17.489-0.731 0-1.463 0-2.186 0 0-5.834 0-11.668 0-17.494-0.731 0-1.463 0-2.186 0-7.288-61.205-14.581-122.423-21.86-183.627 8.016 2.908 16.026 5.826 24.046 8.742 0 0.727 0 1.454 0 2.186 2.186 0 4.371 0 6.557 0 0 0.723 0 1.454 0 2.186 1.454 0 2.908 0 4.371 0 0 0.723 0 1.454 0 2.186 2.182 0 4.371 0 6.552 0 0 0.727 0 1.454 0 2.186 2.918 0.723 5.834 1.454 8.742 2.186 0 0.723 0 1.454 0 2.186 2.195 0 4.375 0 6.565 0 0 0.727 0 1.454 0 2.186 2.908 0.723 5.826 1.454 8.742 2.186 0 0.727 0 1.458 0 2.186 2.182 0 4.371 0 6.552 0 0 0.727 0 1.454 0 2.186 1.463 0 2.918 0 4.371 0 0 0.723 0 1.454 0 2.186 2.186 0 4.371 0 6.557 0 0 0.727 0 1.454 0 2.186 2.918 0.723 5.834 1.454 8.747 2.186 0 0.723 0 1.454 0 2.176 2.186 0 4.371 0 6.557 0 0 0.731 0 1.463 0 2.195 2.918 0.723 5.834 1.454 8.742 2.176 0 0.731 0 1.463 0 2.195 2.186 0 4.371 0 6.557 0 0 0.727 0 1.454 0 2.182 2.918 0.731 5.834 1.463 8.747 2.195 0 0.723 0 1.454 0 2.176 2.186 0 4.371 0 6.557 0 0 0.731 0 1.463 0 2.195 7.288 2.176 14.581 4.371 21.86 6.552-1.805-9.003-7.117-15.093-10.932-21.864 0-1.454 0-2.908 0-4.366-1.454-0.731-2.908-1.463-4.375-2.186 0-1.463 0-2.918 0-4.371-2.186-1.463-4.371-2.917-6.557-4.371-0.727-2.186-1.454-4.371-2.186-6.557-3.644-0.731-7.283-1.463-10.932-2.186 0-0.731 0-1.463 0-2.186-2.908-0.731-5.829-1.463-8.747-2.186 0-0.731 0-1.463 0-2.186-2.186 0-4.371 0-6.557 0 0-0.731 0-1.463 0-2.186-1.454 0-2.908 0-4.371 0 0-0.731 0-1.463 0-2.186-2.186 0-4.371 0-6.557 0 0-0.731 0-1.463 0-2.186-2.908-0.731-5.826-1.463-8.747-2.186 0-0.731 0-1.463 0-2.186-2.176 0-4.371 0-6.547 0 0-0.731 0-1.463 0-2.186-2.918-0.731-5.834-1.463-8.747-2.186 0-0.731 0-1.463 0-2.186-2.195 0-4.381 0-6.565 0 0-0.731 0-1.463 0-2.186-2.908-0.731-5.826-1.463-8.747-2.186 0-0.731 0-1.463 0-2.186-2.176 0-4.371 0-6.547 0 0-0.731 0-1.463 0-2.186-3.649-0.731-7.292-1.463-10.942-2.186 0-0.731 0-1.463 0-2.186-2.908-0.731-5.826-1.463-8.738-2.186 0-0.731 0-1.463 0-2.186-2.186 0-4.38 0-6.557 0 0-0.731 0-1.463 0-2.186-1.463 0-2.918 0-4.371 0 0-0.731 0-1.463 0-2.186-7.292-2.186-14.581-4.371-21.864-6.557 0-0.731 0-1.463 0-2.186-2.918-0.731-5.834-1.463-8.742-2.186 0-0.731 0-1.463 0-2.186-2.186 0-4.375 0-6.557 0 0-0.731 0-1.463 0-2.186-4.371-1.463-8.747-2.917-13.118-4.371 0.171 18.233 2.329 37.667 6.557 52.467 0 5.829 0 11.655 0 17.489 0.723 0 1.454 0 2.186 0 0 5.093 0 10.196 0 15.304 0.723 0 1.454 0 2.186 0 0 5.826 0 11.655 0 17.484 0.727 0 1.454 0 2.186 0 0 5.834 0 11.664 0 17.489 0.723 0 1.454 0 2.186 0 0 5.834 0 11.664 0 17.489 0.727 0 1.458 0 2.186 0 0 5.834 0 11.664 0 17.489 0.727 0 1.454 0 2.186 0 0.723 11.664 1.454 23.323 2.186 34.978 8.854 31.014 6.499 71.495 15.304 102.752 3.927 13.934-1.808 32.491-4.371 41.539 0 10.192 0 20.397 0 30.603-0.731 0-1.463 0-2.186 0 0 5.821 0 11.655 0 17.475-0.731 0-1.463 0-2.186 0 0 6.561 0 13.136 0 19.679-0.731 0-1.463 0-2.186 0-2.918 30.603-5.834 61.227-8.747 91.816-0.731 0-1.463 0-2.186 0 0 5.839 0 11.673 0 17.489-0.731 0-1.463 0-2.186 0 0 5.834 0 11.668 0 17.484-0.731 0-1.463 0-2.186 0 0 6.561 0 13.118 0 19.679-0.731 0-1.463 0-2.186 0 0 5.834 0 11.668 0 17.484-0.731 0-1.463 0-2.186 0 0 6.561 0 13.118 0 19.679-0.731 0-1.463 0-2.186 0-1.463 13.84-2.918 27.695-4.371 41.534 72.86 13.118 145.746 26.235 218.605 39.353 14.581 4.438 33.524 6.489 48.096 10.932 3.644 0 7.292 0 10.932 0 7.14 2.199 20.993 7.75 32.792 4.375 43.415-12.436 94.692-15.304 137.721-28.421 3.649 0 7.297 0 10.932 0 0-0.723 0-1.445 0-2.186 4.375 0 8.742 0 13.118 0 0-0.723 0-1.458 0-2.182 3.649 0 7.297 0 10.932 0 0-0.727 0-1.449 0-2.186 15.304-2.186 30.608-4.375 45.906-6.561 13.433-4.098 32.384-6.803 45.909-10.932 3.649 0 7.292 0 10.932 0 4.779-1.458 16.026-6.691 24.046-4.371 41.643 12.037 89.931 19.661 131.168 32.792 3.649 0 7.283 0 10.932 0 22.924 7.283 51.417 12.378 74.331 19.674 3.649 0 7.283 0 10.932 0 0 0.741 0 1.463 0 2.186 9.47 1.463 18.952 2.921 28.421 4.375 0 0.723 0 1.458 0 2.186 2.962-0.027 5.887-0.027 8.796-0.027zM366.169 690.664c-0.731 0-1.454 0-2.186 0 0 6.557 0 13.117 0 19.674-0.731 0-1.454 0-2.186 0 0 7.298 0 14.581 0 21.86-0.731 0-1.454 0-2.186 0-5.829 61.936-11.664 123.885-17.489 185.822-77.966-14.562-155.946-29.144-233.913-43.72 0.727-8.747 1.454-17.489 2.186-26.235 0.723 0 1.454 0 2.186 0 0-6.561 0-13.118 0-19.679 0.723 0 1.454 0 2.186 0 0-5.821 0-11.655 0-17.484 0.727 0 1.454 0 2.186 0 0-5.821 0-11.66 0-17.489 0.723 0 1.454 0 2.186 0 0-6.557 0-13.118 0-19.674 0.727 0 1.454 0 2.186 0 0-5.821 0-11.66 0-17.489 0.727 0 1.454 0 2.186 0 0-6.557 0-13.117 0-19.674 0.723 0 1.454 0 2.186 0 0-5.821 0-11.655 0-17.489 0.727 0 1.454 0 2.186 0 0-5.821 0-11.655 0-17.484 0.723 0 1.454 0 2.186 0 0-6.561 0-13.118 0-19.679 0.723 0 1.454 0 2.186 0 0-5.821 0-11.655 0-17.484 0.727 0 1.454 0 2.186 0 0-6.561 0-13.118 0-19.679 0.723 0 1.454 0 2.186 0 0-5.821 0-11.655 0-17.484 0.723 0 1.454 0 2.176 0 0-1.449 0-2.908 0-4.375 42.994 7.297 86 14.581 128.984 21.86 9.473 0.741 18.952 1.463 28.421 2.186 0 0.741 0 1.463 0 2.186 9.473 0.736 18.952 1.463 28.421 2.186 11 3.241 30.096 8.768 41.534 4.371 0.924 5.668 2.558 25.984 0.008 34.978zM372.731 924.576c0.143-14.576 1.176-28.089 4.371-39.349 0-7.283 0-14.581 0-21.864 0.731 0 1.454 0 2.186 0 0-6.557 0-13.114 0-19.674 0.731 0 1.454 0 2.186 0 0-7.283 0-14.562 0-21.86 0.731 0 1.454 0 2.186 0 0-6.561 0-13.118 0-19.679 0.731 0 1.454 0 2.186 0 0-7.279 0-14.562 0-21.86 0.731 0 1.454 0 2.186 0 0-6.557 0-13.118 0-19.674 0.731 0 1.454 0 2.186 0 0-7.283 0-14.567 0-21.861 0.731 0 1.454 0 2.186 0 0-6.561 0-13.118 0-19.679 0.731 0 1.454 0 2.186 0 0-7.279 0-14.562 0-21.861 0.731 0 1.454 0 2.186 0 0-6.557 0-13.117 0-19.674 0.731 0 1.454 0 2.186 0 0-5.098 0-10.192 0-15.304 1.454-0.723 2.917-1.449 4.375-2.186 2.563-4.196 0.013-4.878 4.371-8.742 6.095-5.56 19.024-1.625 28.421-4.375 0-0.723 0-1.445 0-2.186 5.103 0 10.201 0 15.304 0 0-0.723 0-1.445 0-2.167 4.371 0 8.742 0 13.118 0 12.826-3.815 30.885-4.958 43.72-8.747 5.098 0 10.201 0 15.299 0 0-0.736 0-1.458 0-2.199 4.375 0 8.742 0 13.118 0 0-0.723 0-1.445 0-2.168 5.112 0 10.205 0 15.304 0 0-0.741 0-1.463 0-2.199 5.112 0 10.201 0 15.299 0 0-0.723 0-1.449 0-2.172 17.489-2.199 34.978-4.375 52.467-6.57 8.742 84.518 17.489 169.068 26.235 253.592-91.075 17.48-182.177 34.973-273.257 52.458zM652.544 528.901c0-8.020 0-16.039 0-24.054 0.741 0 1.463 0 2.186 0 0-8.016 0-16.026 0-24.046 0.736 0 1.463 0 2.186 0 0-8.016 0-16.035 0-24.046 0.736 0 1.458 0 2.186 0 0-7.283 0-14.573 0-21.864 0.736 0 1.458 0 2.186 0 0-8.016 0-16.026 0-24.046 0.736 0 1.458 0 2.182 0 0-8.016 0-16.026 0-24.040 0.741 0 1.463 0 2.186 0 0-8.020 0-16.035 0-24.054 0.741 0 1.463 0 2.186 0 0-7.283 0-14.572 0-21.856 0.736 0 1.463 0 2.186 0 0-8.020 0-16.035 0-24.046 0.736 0 1.458 0 2.186 0 0-8.020 0-16.035 0-24.046 0.736 0 1.458 0 2.182 0 2.064-7.243-1.75-15.053 2.186-19.674 0-0.731 0-1.463 0-2.186 2.186 0.727 4.375 1.454 6.561 2.186 0 0.727 0 1.454 0 2.186 2.186 0 4.371 0 6.557 0 0 0.723 0 1.454 0 2.186 2.186 0 4.375 0 6.561 0 0 0.727 0 1.454 0 2.186 1.458 0 2.921 0 4.371 0 0 0.723 0 1.454 0 2.186 2.186 0 4.375 0 6.561 0 0 0.723 0 1.454 0 2.186 1.458 0 2.921 0 4.371 0 0 0.727 0 1.454 0 2.186 2.186 0 4.375 0 6.561 0 0 0.723 0 1.454 0 2.186 2.186 0 4.375 0 6.557 0 0 0.723 0 1.454 0 2.186 1.463 0 2.926 0 4.375 0 0 0.727 0 1.454 0 2.186 2.186 0 4.375 0 6.557 0 0 0.723 0 1.454 0 2.186 2.186 0 4.375 0 6.561 0 0 0.727 0 1.454 0 2.186 1.458 0 2.921 0 4.375 0 0 0.727 0 1.454 0 2.186 2.182 0 4.371 0 6.557 0 0 0.723 0 1.454 0 2.186 2.186 0 4.375 0 6.557 0 0 0.727 0 1.454 0 2.186 1.463 0 2.913 0 4.375 0 0 0.723 0 1.454 0 2.186 3.649 0.723 7.283 1.454 10.932 2.186 0 0.727 0 1.454 0 2.186 4.375 0.723 8.742 1.454 13.118 2.186 0 0.723 0 1.454 0 2.186 1.463 0 2.908 0 4.375 0 0 0.727 0 1.454 0 2.186 4.371 0.723 8.742 1.454 13.118 2.186 0 0.727 0 1.458 0 2.186 1.458 0 2.908 0 4.371 0 0 0.727 0 1.454 0 2.186 4.375 0.723 8.747 1.454 13.118 2.186 0 0.727 0 1.454 0 2.186 1.463 0 2.908 0 4.375 0 0 0.727 0 1.454 0 2.186 2.186 0 4.375 0 6.557 0 0 0.723 0 1.454 0 2.186 1.463 0 2.908 0 4.375 0 0 0.727 0 1.454 0 2.186 2.186 0 4.375 0 6.557 0 0 0.723 0 1.454 0 2.186 2.186 0 4.375 0 6.561 0 0 0.723 0 1.454 0 2.186 1.463 0 2.908 0 4.375 0 0 0.727 0 1.454 0 2.186 4.371 0.723 8.742 1.454 13.114 2.186 12.885 5.753 27.658 12.404 41.539 17.489-2.186 23.314-4.375 46.633-6.557 69.947-0.727 0-1.463 0-2.186 0-1.463 17.489-2.908 34.982-4.375 52.467-0.723 0-1.458 0-2.186 0 0 5.103 0 10.205 0 15.304-0.723 0-1.458 0-2.182 0 0 5.826 0 11.664 0 17.489-0.727 0-1.463 0-2.186 0 0 5.826 0 11.66 0 17.498-0.727 0-1.463 0-2.186 0 0 5.821 0 11.655 0 17.484-2.908 19.661-5.834 39.353-8.742 59.010-77.239-9.465-154.493-18.938-231.731-28.403 0.121-19.149 0.148-37.554 4.353-52.448zM910.511 920.21c-77.962-18.217-155.955-36.442-233.918-54.656-4.111-21.887-2.8-51.332-8.742-72.142 0-7.283 0-14.562 0-21.86-0.723 0-1.445 0-2.186 0-0.723-15.304-1.445-30.608-2.186-45.906-0.723 0-1.445 0-2.182 0 0-7.283 0-14.567 0-21.86-0.727 0-1.449 0-2.186 0 0-7.283 0-14.567 0-21.864-0.727 0-1.449 0-2.186 0-1.449-22.582-2.908-45.17-4.375-67.77 17.112 0.274 36.248 2.54 50.281 6.57 5.834 0 11.673 0 17.489 0 0 0.727 0 1.449 0 2.172 5.834 0 11.668 0 17.484 0 0 0.741 0 1.463 0 2.199 5.834 0 11.673 0 17.489 0 0 0.723 0 1.449 0 2.172 5.834 0 11.668 0 17.484 0 0 0.736 0 1.458 0 2.199 5.839 0 11.66 0 17.489 0 0 0.723 0 1.445 0 2.168 5.834 0 11.655 0 17.489 0 0 0.741 0 1.463 0 2.199 5.093 0 10.201 0 15.299 0 0 0.727 0 1.449 0 2.172 5.834 0 11.66 0 17.489 0 0 0.736 0 1.463 0 2.199 10.394 2.979 28.143-1.418 34.978 4.375 6.162 6.736 1.445 18.198 4.375 28.403 0.723 0 1.458 0 2.182 0 0 5.834 0 11.673 0 17.489 0.727 0 1.463 0 2.186 0 0 6.557 0 13.118 0 19.674 0.723 0 1.463 0 2.186 0 0 5.834 0 11.673 0 17.489 7.939 27.766 5.166 64.162 13.118 91.816 0 6.561 0 13.118 0 19.679 0.723 0 1.463 0 2.186 0 0 5.834 0 11.668 0 17.484 0.723 0 1.458 0 2.186 0 0 5.834 0 11.673 0 17.489 0.723 0 1.458 0 2.182 0 3.2 11.148-1.813 29.772 4.375 37.163 0.013 3.657 0.013 7.306 0.013 10.946z" p-id="2399"></path></svg>