<?xml version="1.0" standalone="no"?><!DOCTYPE svg PUBLIC "-//W3C//DTD SVG 1.1//EN" "http://www.w3.org/Graphics/SVG/1.1/DTD/svg11.dtd"><svg t="1543970680187" class="icon" style="" viewBox="0 0 1024 1024" version="1.1" xmlns="http://www.w3.org/2000/svg" p-id="1994" xmlns:xlink="http://www.w3.org/1999/xlink" width="200" height="200"><defs><style type="text/css"></style></defs><path d="M921.6 486.4l0-51.2c0-3.9936-0.9216-7.8848-2.7136-11.4688l-102.4-204.8c-4.352-8.6528-13.2096-14.1312-22.8864-14.1312l-614.4 0c-9.6768 0-18.5856 5.4784-22.8864 14.1312l-102.4 204.8c-1.792 3.5328-2.7136 7.4752-2.7136 11.4688l0 51.2c0 41.7792 20.1216 78.9504 51.2 102.3488l0 332.8512-25.6 0c-14.1312 0-25.6 11.4688-25.6 25.6s11.4688 25.6 25.6 25.6l819.2 0c14.1312 0 25.6-11.4688 25.6-25.6s-11.4688-25.6-25.6-25.6l-25.6 0 0-332.8512c31.0784-23.3984 51.2-60.5184 51.2-102.3488zM588.8 563.2c-42.3424 0-76.8-34.4576-76.8-76.8l0-25.6 153.6 0 0 25.6c0 42.3424-34.4576 76.8-76.8 76.8zM102.4 486.4l0-25.6 153.6 0 0 25.6c0 42.3424-34.4576 76.8-76.8 76.8s-76.8-34.4576-76.8-76.8zM460.8 256l0 153.6-146.432 0 38.4-153.6 108.032 0zM620.032 256l38.4 153.6-146.432 0 0-153.6 108.032 0zM307.2 460.8l153.6 0 0 25.6c0 42.3424-34.4576 76.8-76.8 76.8s-76.8-34.4576-76.8-76.8l0-25.6zM716.8 460.8l153.6 0 0 25.6c0 42.3424-34.4576 76.8-76.8 76.8s-76.8-34.4576-76.8-76.8l0-25.6zM854.5792 409.6l-143.4112 0-38.4-153.6 105.0112 0 76.8 153.6zM195.0208 256l105.0112 0-38.4 153.6-143.4112 0 76.8-153.6zM153.6 611.84c8.2944 1.6896 16.8448 2.56 25.6 2.56 41.8304 0 79.0528-20.1728 102.4-51.3024 23.3472 31.1296 60.5696 51.3024 102.4 51.3024s79.0528-20.1728 102.4-51.3024c18.4832 24.576 45.568 42.3424 76.8 48.6912l0 309.76-409.6 0 0-309.76zM819.2 921.6l-204.8 0 0-309.76c31.232-6.3488 58.3168-24.1152 76.8-48.6912 23.3472 31.1296 60.5696 51.3024 102.4 51.3024 8.7552 0 17.3056-0.8704 25.6-2.56l0 309.76z" p-id="1995"></path><path d="M716.8 742.4c0 14.1312-11.4688 25.6-25.6 25.6s-25.6-11.4688-25.6-25.6c0-14.1312 11.4688-25.6 25.6-25.6s25.6 11.4688 25.6 25.6z" p-id="1996"></path><path d="M230.4 768c-6.5536 0-13.1072-2.5088-18.1248-7.4752-9.984-9.984-9.984-26.2144 0-36.1984l51.2-51.2c9.984-9.984 26.2144-9.984 36.1984 0s9.984 26.2144 0 36.1984l-51.2 51.2c-5.0176 5.0176-11.5712 7.4752-18.1248 7.4752z" p-id="1997"></path><path d="M281.6 870.4c-6.5536 0-13.1072-2.5088-18.1248-7.4752-9.984-9.984-9.984-26.2144 0-36.1984l153.6-153.6c9.984-9.984 26.2144-9.984 36.1984 0s9.984 26.2144 0 36.1984l-153.6 153.6c-5.0176 5.0176-11.5712 7.4752-18.1248 7.4752z" p-id="1998"></path><path d="M435.2 870.4c-6.5536 0-13.1072-2.5088-18.1248-7.4752-9.984-9.984-9.984-26.2144 0-36.1984l51.2-51.2c9.984-9.984 26.2144-9.984 36.1984 0s9.984 26.2144 0 36.1984l-51.2 51.2c-5.0176 5.0176-11.5712 7.4752-18.1248 7.4752z" p-id="1999"></path></svg>